<?xml version="1.0" encoding="utf-8"?>
<!-- Generator: Adobe Illustrator 24.2.3, SVG Export Plug-In . SVG Version: 6.00 Build 0)  -->
<svg version="1.1" id="svg8" xmlns="http://www.w3.org/2000/svg" xmlns:xlink="http://www.w3.org/1999/xlink" x="0px" y="0px"
	 viewBox="0 0 224.8 260.2" style="enable-background:new 0 0 224.8 260.2;" xml:space="preserve">
<path d="M0.7,204.9v-2l16-14.5L16.2,16.5L0,2l0.1-2h72.6c34.6,0,54.3,13.7,58,34.1c5.4,29.7-24.2,43.2-47.4,48.2l1.3,0.7
	c4.8,1.8,10.6,2.7,17.3,3.4l33.5,56.3l16.9,13.2v1.9h-44.6L70.4,84.4c-2.5,0.3-5.1,0.4-7.6,0.4h-7l-1.2-4.9l9.2-0.1
	c31.6-0.9,38.9-22.8,34.4-47.5c-2.9-16.3-13.4-27-34.9-27H46.8l0.6,199.5L0.7,204.9z"/>
<path d="M83,156.6h0.2l15.1,14.6l-0.4,2.2H52l0.3-2.2l23.6-13.9l57.7-61.3H133l-15.3-14.6l0.4-2.2h46.7l-0.4,2.2l-23.7,14L83,156.6z
	"/>
<polygon points="18.1,27.5 1.9,12.9 2,10.9 18.4,10.9 "/>
<path d="M134.8,180.3c8,3.6,24.2,11.4,33.9,29.1c3.4,6.2,2.2,6.7,4.9,11.6c13.5,25.4,51.6,25.2,51.2,30.3
	c-0.4,5.6-47.6,18.2-68.8-3.3c-11-11.2-5.4-22-22.5-47.9c-8.3-12.5-16.9-21.2-14.7-23.9C120.7,173.9,129.3,177.8,134.8,180.3z"/>
</svg>
